<svg version="1" xmlns="http://www.w3.org/2000/svg" width="930.667" height="930.667" viewBox="0 0 698.000000 698.000000"><path d="M6.2 281.2l.3 281.3 3 .2c8.3.5 29.6.4 30.4-.1.5-.4 1.3-.2 1.6.4.5.8 1.1.8 1.9.1.7-.6 1.5-.8 1.9-.5.3.3 5 .5 10.4.5s15.1-.1 21.5-.2c6.5 0 12.2.2 12.7.5.5.4 1.2.2 1.6-.4.4-.6 1.1-.8 1.6-.5.5.3 13.4.6 28.6.6 20.6 0 27.9.3 28.5 1.2.5.8.8.6.8-.7 0-1.5.3-1.6 1.5-.6.8.7 1.2 1.7.9 2.4-.3.6.4 0 1.5-1.3 1.9-2.1 2.1-2.1 2.2-.5 0 1.8.1 1.7.9-.1.7-1.6.9-1.7.9-.3.1.9.5 2 1.1 2.3.6.3.7-.1.4-.9-.5-1.3.9-1.5 10.2-1.5 7.3 0 11.1.4 11.6 1.2.5.8.8.6.8-.7 0-1.5.3-1.6 1.5-.6.8.7 1.2 1.7.9 2.4-.3.6.4 0 1.5-1.3 1.9-2.1 2.1-2.1 2.2-.5 0 1.8.1 1.7.9-.1.7-1.6.9-1.7.9-.3.1.9.5 2 1.1 2.3.6.3.7-.1.4-1-.6-1.4.5-1.6 8.7-1.5 5.2 0 14.4 0 20.6-.1 6.2 0 11.7.2 12.2.5.5.4 1.2.2 1.6-.4.4-.6 1.1-.8 1.6-.4.6.3 5.4.5 10.7.5 5.3 0 15-.1 21.4-.2 6.5 0 12.2.2 12.7.5.5.4 1.2.2 1.6-.4.4-.6 1.1-.8 1.6-.5.5.3 13.4.6 28.6.6 20.6 0 27.9.3 28.5 1.2.5.8.8.5.8-.8 0-1.7.2-1.7 1-.5.5.8 1 1 1 .3 0-.6.9-.9 2-.6 1.9.5 1.9 1.7 2 66.6 0 37.6.4 66.3.9 66.6.5.4 5.1.5 10.3.4 5.1-.2 9.9-.3 10.6-.3.6 0 3.8.1 7 .1h7.7c1.1-.1 7.3 0 13.8.1 6.4.2 11.7-.1 11.7-.5 0-.5.6-.5 1.3 0 1.8 1.1 17.1 1 17.9-.2.5-.6.8-.5.8.4 0 1.1.3 1.1 1.5.1.8-.7 1.5-.8 1.5-.4 0 .5 3.5.8 7.8.6 4.2-.1 8.2-.2 8.7-.2 19 .4 24.5.4 24.5-.3 0-.5.5-.5 1.1-.1 1.7 1 12.9 1.2 12.9.2 0-.5.5-.6 1.2-.2 1.6 1 12.8 1.1 12.8.1 0-.4.8-.4 1.8.1.9.4 3.3.7 5.2.5 4.3-.4 3.1-.3 17.3 0 6.4.1 11.7-.2 11.7-.6 0-.5.6-.5 1.3 0 1.8 1.1 17.1 1 17.9-.2.5-.6.8-.5.8.4 0 1.1.3 1.1 1.5.1.8-.7 1.5-.8 1.5-.4 0 .5 3.5.8 7.8.6 4.2-.1 8.2-.2 8.7-.2 19 .4 24.5.4 24.5-.3 0-.5.5-.5 1.1-.1 1.7 1 12.9 1.2 12.9.2 0-.5.5-.6 1.2-.2 1.6 1 12.8 1.1 12.8.1 0-.4.8-.4 1.8.1.9.4 6.9.7 13.2.5 13.7-.3 10-.3 29.9-.1l16.4.2-.1-96.5c-.1-53-.2-96.9-.2-97.4V487v-16c0-.8.1-6.7.3-13 .1-6.3-.1-12.3-.6-13.3-.4-.9-.4-1.7 0-1.7s.8-21.3.7-47.2l-.1-47.3-5.1-.1c-2.9-.1-5.9-.4-6.7-.7-.8-.4-1.7-.3-1.9.2-.3.4-2.6.5-5 .1-2.5-.4-5-.4-5.6 0-.7.4-2.5.6-4.1.4-1.6-.2-4.3-.6-5.9-.8-1.7-.2-3.2 0-3.5.4-.2.4-2.5.4-4.9 0-2.5-.4-5-.4-5.5 0-.6.3-3.8.3-7.1 0-3.4-.3-6.3-.3-6.5.1-.3.3-2.5.3-4.9-.1-2.5-.4-5-.4-5.6 0-.7.4-2.6.5-4.3.3-1.8-.2-3.9-.4-4.7-.4-.8.1-3 .1-4.8.1-1.7.1-4.2-.2-5.3-.5-1.2-.4-1.9-.3-1.6.2.3.4-.9.7-2.6.6-4.5-.3-7.8-.3-11.2-.2-2.9.1-3.9.1-11.5-.2-1.9 0-4.2-.1-5 0-4.1.3-5.4.1-6.1-1.1-.7-1-.9-1-1 .2-.1.8-.5-.1-.8-2-.4-2-.2-3.8.4-4.2.6-.5.6-.8-.2-.8-.9 0-1-.7-.3-2.5.5-1.4.6-2.5.2-2.5-.4 0-.7-8.8-.7-19.5s.3-19.5.7-19.5c.4 0 .3-1.4-.2-3-.5-1.7-.5-3 0-3 .4 0 .5-1.2.1-2.8-.5-1.9-.3-3.1.8-4 .9-.8 1.1-1.1.5-.8-.7.4-1.3-.6-1.6-2.4-.3-1.6 0-3.2.6-3.4.7-.3.6-.5-.1-.5-.9-.1-1-.8-.3-2.6.5-1.4.6-2.5.2-2.5-.8 0-.6-12.4.2-14.6.3-.8.2-1.4-.2-1.4s-.7-3.8-.7-8.5.3-8.5.6-8.5c.4 0 .3-1.6-.1-3.5-.5-2.4-.4-3.5.4-3.5.7 0 .7-.3.1-.8-1.6-1.1-1.2-9.5.5-11 .8-.8 1-1.1.4-.8-.7.4-1.3-.6-1.6-2.4-.3-1.6 0-3.2.6-3.4.7-.3.6-.5-.1-.5-.9-.1-1-.8-.3-2.6.5-1.4.6-2.5.2-2.5-.4 0-.7-8.8-.7-19.5s.3-19.5.7-19.5c.4 0 .3-1.4-.2-3-.5-1.7-.5-3 0-3 .4 0 .5-1.2.1-2.8-.5-1.9-.3-3.1.8-4 .9-.8 1.1-1.1.5-.8-.7.4-1.3-.6-1.6-2.4-.3-1.6 0-3.2.6-3.4.7-.3.6-.5-.1-.5-.9-.1-1-.8-.3-2.6.5-1.4.6-2.5.2-2.5-.8 0-.6-12.4.2-14.6.3-.8.2-1.4-.2-1.4s-.7-3.8-.7-8.5.3-8.5.6-8.5c.4 0 .3-1.6-.1-3.5-.5-2.4-.4-3.5.4-3.5.7 0 .7-.3.1-.8-1.6-1.1-1.2-9.5.5-11 .8-.8 1-1.1.4-.8-.7.4-1.3-.6-1.6-2.4-.3-1.6 0-3.2.6-3.4.7-.3.6-.5-.1-.5-.9-.1-1-.8-.3-2.6.5-1.4.6-2.5.2-2.5-.4 0-.7-8.8-.7-19.5s.3-19.5.7-19.5c.4 0 .3-1.4-.2-3-.5-1.7-.5-3 0-3 .4 0 .5-1.2.1-2.8-.5-1.9-.3-3.1.8-4 .9-.8 1.1-1.1.5-.8-.7.4-1.4-.6-1.6-2.4-.3-1.7 0-3 .6-3 .7 0 .7-.3.1-.8-.5-.4-1-5-1-10.2V.5L283.2.2 6 0l.2 281.2z"/><path d="M564.6 63.8c-.2.4.4.8 1.4.8 1 0 1.6-.4 1.4-.8-.3-.4-.9-.8-1.4-.8-.5 0-1.1.4-1.4.8zM564 96c-.9.6-1 1-.3 1 .6 0 1.5-.5 1.8-1 .8-1.2.4-1.2-1.5 0zM562.6 99.8c-.3.5.1.9.9.9s1.2-.4.9-.9c-.3-.4-.7-.8-.9-.8-.2 0-.6.4-.9.8zM564.6 191.8c-.2.4.4.8 1.4.8 1 0 1.6-.4 1.4-.8-.3-.4-.9-.8-1.4-.8-.5 0-1.1.4-1.4.8zM564 224c-.9.6-1 1-.3 1 .6 0 1.5-.5 1.8-1 .8-1.2.4-1.2-1.5 0zM562.6 227.8c-.3.5.1.9.9.9s1.2-.4.9-.9c-.3-.4-.7-.8-.9-.8-.2 0-.6.4-.9.8zM564.6 319.8c-.2.4.4.8 1.4.8 1 0 1.6-.4 1.4-.8-.3-.4-.9-.8-1.4-.8-.5 0-1.1.4-1.4.8zM567.6 343.3c.3 1 .9 1.5 1.2 1.2.3-.3 0-1.1-.7-1.8-1-.9-1.1-.8-.5.6zM33.3 565.5c0 .8.4 1.2.9.9.5-.3.6-1 .3-1.5-.9-1.3-1.2-1.1-1.2.6zM55.3 565.5c0 .8.4 1.2.9.9.5-.3.6-1 .3-1.5-.9-1.3-1.2-1.1-1.2.6zM81.3 565.5c0 .8.4 1.2.9.9.5-.3.6-1 .3-1.5-.9-1.3-1.2-1.1-1.2.6zM103.3 565.5c0 .8.4 1.2.9.9.5-.3.6-1 .3-1.5-.9-1.3-1.2-1.1-1.2.6zM133.3 565.5c0 .8.4 1.2.9.9.5-.3.6-1 .3-1.5-.9-1.3-1.2-1.1-1.2.6zM165.3 565.5c0 .8.4 1.2.9.9.5-.3.6-1 .3-1.5-.9-1.3-1.2-1.1-1.2.6zM199.3 565.5c0 .8.4 1.2.9.9.5-.3.6-1 .3-1.5-.9-1.3-1.2-1.1-1.2.6zM225.3 565.5c0 .8.4 1.2.9.9.5-.3.6-1 .3-1.5-.9-1.3-1.2-1.1-1.2.6zM247.3 565.5c0 .8.4 1.2.9.9.5-.3.6-1 .3-1.5-.9-1.3-1.2-1.1-1.2.6zM273.3 565.5c0 .8.4 1.2.9.9.5-.3.6-1 .3-1.5-.9-1.3-1.2-1.1-1.2.6zM295.3 565.5c0 .8.4 1.2.9.9.5-.3.6-1 .3-1.5-.9-1.3-1.2-1.1-1.2.6zM325.3 565.5c0 .8.4 1.2.9.9.5-.3.6-1 .3-1.5-.9-1.3-1.2-1.1-1.2.6zM118.6 566.2c.3.5 1 .6 1.5.3 1.3-.9 1.1-1.2-.6-1.2-.8 0-1.2.4-.9.9zM310.6 566.2c.3.5 1 .6 1.5.3 1.3-.9 1.1-1.2-.6-1.2-.8 0-1.2.4-.9.9zM143.3 569.5c0 .8.4 1.2.9.9.5-.3.6-1 .3-1.5-.9-1.3-1.2-1.1-1.2.6zM175.3 569.5c0 .8.4 1.2.9.9.5-.3.6-1 .3-1.5-.9-1.3-1.2-1.1-1.2.6zM335.3 569.5c0 .8.4 1.2.9.9.5-.3.6-1 .3-1.5-.9-1.3-1.2-1.1-1.2.6zM35.3 571.5c0 .8.4 1.2.9.9.5-.3.6-1 .3-1.5-.9-1.3-1.2-1.1-1.2.6zM83.3 571.5c0 .8.4 1.2.9.9.5-.3.6-1 .3-1.5-.9-1.3-1.2-1.1-1.2.6zM227.3 571.5c0 .8.4 1.2.9.9.5-.3.6-1 .3-1.5-.9-1.3-1.2-1.1-1.2.6zM275.3 571.5c0 .8.4 1.2.9.9.5-.3.6-1 .3-1.5-.9-1.3-1.2-1.1-1.2.6z"/></svg>